<svg width="100%" height="100%" viewBox="0 0 13 14" fill="white" xmlns="http://www.w3.org/2000/svg">
<path d="M1.21875 12.2813L11.7813 1.71875" stroke="white" stroke-width="1.3" stroke-linecap="round" stroke-linejoin="round"/>
<path d="M8.53125 10.6563C8.53125 11.0872 8.70245 11.5006 9.0072 11.8053C9.31195 12.11 9.72527 12.2813 10.1563 12.2813C10.5872 12.2813 11.0006 12.11 11.3053 11.8053C11.61 11.5006 11.7813 11.0872 11.7813 10.6563C11.7813 10.2253 11.61 9.81195 11.3053 9.5072C11.0006 9.20245 10.5872 9.03125 10.1563 9.03125C9.72527 9.03125 9.31195 9.20245 9.0072 9.5072C8.70245 9.81195 8.53125 10.2253 8.53125 10.6563Z" stroke="white" stroke-width="1.3" stroke-linecap="round" stroke-linejoin="round"/>
<path d="M1.21875 3.34375C1.21875 3.77473 1.38995 4.18805 1.6947 4.4928C1.99945 4.79755 2.41277 4.96875 2.84375 4.96875C3.27473 4.96875 3.68805 4.79755 3.9928 4.4928C4.29755 4.18805 4.46875 3.77473 4.46875 3.34375C4.46875 2.91277 4.29755 2.49945 3.9928 2.1947C3.68805 1.88995 3.27473 1.71875 2.84375 1.71875C2.41277 1.71875 1.99945 1.88995 1.6947 2.1947C1.38995 2.49945 1.21875 2.91277 1.21875 3.34375Z" stroke="white" stroke-width="1.3" stroke-linecap="round" stroke-linejoin="round"/>
</svg>
